Coordinates
version=1
nRows=5
nColumns=38
inDegrees=no

Units are S.I. units (second, meters, Newtons, ...)
If the header above contains a line with 'inDegrees', this indicates whether rotational values are in degrees (yes) or radians (no).

endheader
time	pelvis_tilt	pelvis_list	pelvis_rotation	pelvis_tx	pelvis_ty	pelvis_tz	hip_flexion_r	hip_adduction_r	hip_rotation_r	knee_angle_r	ankle_angle_r	subtalar_angle_r	mtp_angle_r	hip_flexion_l	hip_adduction_l	hip_rotation_l	knee_angle_l	ankle_angle_l	subtalar_angle_l	mtp_angle_l	lumbar_extension	lumbar_bending	lumbar_rotation	arm_flex_r	arm_add_r	arm_rot_r	elbow_flex_r	pro_sup_r	wrist_flex_r	wrist_dev_r	arm_flex_l	arm_add_l	arm_rot_l	elbow_flex_l	pro_sup_l	wrist_flex_l	wrist_dev_l
20	2.95264	1.36527	-1.28034	0.676417	-0.182108	0.948663	-0.311253	0.0383425	-0.0636995	0.208933	-0.198895	0	0	-0.277127	-0.119812	-0.0658801	0.283018	-0.140465	0	0	-0.205868	0.0673309	-0.0418208	0.0839346	-0.39938	0.704338	0.723986	1.5708	0	0	0.0748333	-0.255547	0.627021	0.499547	1.5708	0	0
20.01	2.9515	1.36566	-1.28026	0.676561	-0.181839	0.948615	-0.311024	0.0382724	-0.0632654	0.208883	-0.198504	0	0	-0.27737	-0.119638	-0.0659194	0.282762	-0.140201	0	0	-0.205793	0.0676552	-0.0397629	0.0823646	-0.395973	0.707315	0.709304	1.5708	0	0	0.0719683	-0.256993	0.627137	0.507183	1.5708	0	0
20.02	2.94969	1.36453	-1.27935	0.676674	-0.181629	0.948713	-0.312568	0.0388101	-0.062573	0.207708	-0.199648	0	0	-0.279324	-0.12003	-0.0659709	0.281794	-0.140317	0	0	-0.207292	0.0688155	-0.0370538	0.0806643	-0.393108	0.70931	0.696857	1.5708	0	0	0.0702212	-0.258833	0.629989	0.51637	1.5708	0	0
20.03	2.94807	1.36265	-1.27836	0.676751	-0.181472	0.948884	-0.314907	0.0395862	-0.0623576	0.206136	-0.2015	0	0	-0.281885	-0.120726	-0.0663073	0.280861	-0.140683	0	0	-0.209646	0.0702663	-0.034159	0.0786125	-0.390642	0.710321	0.686864	1.5708	0	0	0.0692421	-0.260963	0.633609	0.526957	1.5708	0	0
20.04	2.94801	1.36383	-1.27903	0.676865	-0.181297	0.948689	-0.313206	0.0389823	-0.0630084	0.208226	-0.199329	0	0	-0.280355	-0.120338	-0.0668144	0.282432	-0.139524	0	0	-0.208832	0.0701321	-0.0308829	0.073862	-0.387252	0.702646	0.679233	1.5708	0	0	0.0681582	-0.263996	0.637594	0.539371	1.5708	0	0
